<svg xmlns="http://www.w3.org/2000/svg" xmlns:xlink="http://www.w3.org/1999/xlink" width="900.486" height="840" viewBox="0 0 900.486 840"><defs><style>.a{fill:url(#a);}.b,.c{opacity:0.25;mix-blend-mode:hard-light;isolation:isolate;}.b{fill:url(#b);}.c{fill:url(#c);}.d{fill:#a8d29f;}.e{fill:#afcdfb;}.f{fill:#599dad;}.g{fill:#6bb7bf;}.h{fill:#86d1cd;}.i{fill:#efcbab;}.j{fill:#ffebdc;}.k{fill:#efcdaf;}.l{fill:#9abcef;}.m{fill:#e9f3fe;}.n{fill:#d8e8fd;}.o{fill:#bbd5fc;}.p{fill:#d2e4fd;}.q{fill:#c65447;}.r{fill:#ffb27d;}.s{fill:#e58638;}.t{fill:#233862;}.u{fill:#2b478b;}.v{fill:#ee9849;}.w{fill:#ed985f;}.x{fill:#2c3a64;}.y{fill:#1c468a;}</style><linearGradient id="a" x1="0.146" y1="0.146" x2="0.854" y2="0.854" gradientUnits="objectBoundingBox"><stop offset="0" stop-color="#636284"/><stop offset="1" stop-color="#100f2e"/></linearGradient><linearGradient id="b" x1="0" y1="0.5" x2="1" y2="0.5" xlink:href="#a"/><linearGradient id="c" x1="1" y1="0.5" x2="0" y2="0.5" xlink:href="#a"/></defs><g transform="translate(-122 -142)"><circle class="a" cx="420" cy="420" r="420" transform="translate(122 142)"/><path class="b" d="M989.4,508.336a262.675,262.675,0,0,1-35.337,41.1c-69.02,65.156-156.66,89.937-214.536,119.308-67.788,34.44-94.22,57.82-145.293,133.672-65.464,97.189-147.111,87.975-201.964,63.867C348.343,847,309.647,793.74,273.975,697,318.1,512.312,484.255,375,682.467,375A418.812,418.812,0,0,1,989.4,508.336Z" transform="translate(-140.467 -233)"/><path class="c" d="M1178.77,989.573c-26.488,206.473-202.888,366.045-416.556,366.045-136.724,0-258.189-65.353-334.88-166.516,15.6-3.809,30.8-7.055,45.191-9.969,94.809-19.123,180.321-62.412,177.718-268.268-2.632-205.884,178.919-292.74,292.4-257.992,143.248,43.876,116.061,177.213,157.977,247.549A316.167,316.167,0,0,0,1178.77,989.573Z" transform="translate(-220.214 -373.618)"/><g transform="translate(143.263 287.037)"><path class="d" d="M503.78,1750.5s2.935-19.234,40.39-24.407,72.28-46.662,134.047-40.641,113.02,43.8,183.329,32.227,114.334,3.179,130.1,14.817,81.037-2.731,85.858,18.594Z" transform="translate(-403.229 -1201.161)"/><path class="e" d="M795.927,866.8s-42.273-2.067-19.847,126.768c0,0,15.086,43.733-3.959,71.92h280.344V866.8Z" transform="translate(-541.414 -775.773)"/><g transform="translate(100.552 266.84)"><g transform="translate(149.652 111.77)"><path class="f" d="M874.69,1513.308s-19.586-22.849-1.208-37.363c0,0,13.424-8.127,24.369-7.468,0,0-15.509,26.008-10.491,28.6s15.193-30.226,15.193-30.226,30.548-2.962,40.375,1.763c0,0-26.115,21.37-20.615,22.643s33.707-19.7,33.707-19.7,28.432,4.838,26.916,22.183-11.313,22.7-15.618,22.238-29.493-10.075-30.042-6.548,14.613,15.058,25.23,15.6c0,0-20.045,22.106-33.367,15.726s-14.459-16.493-22.763-20.286-15.394-3.783-11.965.085,18.458,7.629,23.207,16.029,9.011,14.065-4.773,11.991-36.187-12.159-37.171-23.708Z" transform="translate(-841.587 -1465.93)"/><g transform="translate(0 28.134)"><path class="f" d="M960.177,1524.678s-77.222-2.976-94.276,19.109c0,0-3.771,11.3-15.377,21.581l-1.809,4.93s13.381-14.109,18.17-14.963C866.885,1555.335,859.4,1527.974,960.177,1524.678Z" transform="translate(-832.798 -1524.544)"/><path class="f" d="M833.281,1607.489s-16.575,12.258-17.726,34.161l3.008.269s5.294-22.646,14.863-31.5S833.281,1607.489,833.281,1607.489Z" transform="translate(-815.555 -1566.665)"/></g></g><g transform="translate(0 49.732)"><path class="g" d="M618.059,1417.366s31.155-17.447,16.616-41.125c0,0-11.631-14.539-24.094-18.277,0,0,6.647,35.309,0,36.14s-4.569-39.879-4.569-39.879-32.817-15.786-45.695-14.539c0,0,20.354,34.478,13.708,33.647s-29.494-35.725-29.494-35.725-33.648-6.23-39.048,13.709,3.323,29.909,8.308,31.155,36.971.831,36.14,4.985-22.432,10.8-34.478,7.062c0,0,13.293,32.817,30.74,31.155s22.847-12.462,33.648-13.293,18.693,2.077,13.293,4.985-23.678.953-32.4,8.369-15.786,11.986.415,15.309,45.279,1.246,51.1-11.216Z" transform="translate(-503.781 -1336.686)"/><g transform="translate(17.074 20.861)"><path class="g" d="M539.351,1380.147s87.235,28.248,97.2,59.819c0,0-.416,14.124,8.308,30.324v6.231s-9.139-21.185-14.124-24.094C630.74,1452.427,650.264,1425.011,539.351,1380.147Z" transform="translate(-539.351 -1380.147)"/><path class="g" d="M754.653,1563.744s13.453,20.429,5.783,45.3l-3.461-.93s3.359-27.39-3.679-41.166S754.653,1563.744,754.653,1563.744Z" transform="translate(-649.141 -1473.601)"/></g></g><g transform="translate(136.844)"><path class="h" d="M815.872,1339.427s-41.069-23-21.9-54.211c0,0,15.332-19.165,31.759-24.093,0,0-8.761,46.544,0,47.639s6.024-52.568,6.024-52.568,43.259-20.808,60.233-19.165c0,0-26.832,45.449-18.07,44.354s38.878-47.092,38.878-47.092,44.354-8.214,51.473,18.071-4.38,39.426-10.952,41.068-48.734,1.1-47.639,6.571,29.569,14.237,45.449,9.309c0,0-17.522,43.259-40.521,41.068s-30.117-16.428-44.354-17.523-24.641,2.738-17.523,6.572,31.212,1.256,42.711,11.031,20.808,15.8-.547,20.18-59.687,1.643-67.353-14.785Z" transform="translate(-788.873 -1233.077)"/><g transform="translate(5.308 27.499)"><path class="g" d="M961.391,1290.367S846.4,1327.6,833.257,1369.219c0,0,.547,18.618-10.951,39.973v8.214s12.047-27.927,18.617-31.76C840.923,1385.645,815.187,1349.5,961.391,1290.367Z" transform="translate(-811.567 -1290.367)"/><path class="g" d="M810.672,1532.38s-17.734,26.929-7.624,59.709l4.562-1.225s-4.429-36.106,4.849-54.265S810.672,1532.38,810.672,1532.38Z" transform="translate(-799.932 -1413.556)"/></g></g><path class="i" d="M755.088,1723.258a80.446,80.446,0,0,0,80.447-80.447H674.641A80.446,80.446,0,0,0,755.088,1723.258Z" transform="translate(-592.628 -1446.139)"/><path class="j" d="M785.5,1722.643a80.505,80.505,0,0,1-90.437-79.832h19.986A80.46,80.46,0,0,0,785.5,1722.643Z" transform="translate(-603.25 -1446.139)"/><path class="i" d="M835.442,1808.185H672.327a9.925,9.925,0,0,1,9.925-9.925H825.517a9.925,9.925,0,0,1,9.925,9.925Z" transform="translate(-591.425 -1526.972)"/><rect class="k" width="165.368" height="2.467" transform="translate(79.368 196.673)"/></g><g transform="translate(509.581 117.997)"><path class="f" d="M1443.709,962.626s-14.093-26.591,7.022-36.716c0,0,14.881-4.982,25.414-1.936,0,0-20.84,21.97-16.513,25.595s21.457-26.154,21.457-26.154,30.453,3.815,39,10.581c0,0-30.169,15.118-25.083,17.567s37.21-11.825,37.21-11.825,26.676,10.962,21.39,27.55-16.019,19.663-20.118,18.268-26.563-16.3-27.872-12.982,10.951,17.9,21.19,20.754c0,0-24.408,17.167-36,8.018s-10.486-19.264-17.755-24.787-14.188-7.07-11.692-2.544,16.333,11.494,19.123,20.732,5.7,15.7-7.289,10.652-32.636-19.805-31.06-31.288Z" transform="translate(-1399.177 -922.987)"/><g transform="translate(0 32.225)"><path class="f" d="M1520.4,999.587s-74.687-19.853-96.171-2.051c0,0-6.159,10.193-19.739,17.68l-2.847,4.413s16.152-10.828,21.011-10.609C1422.655,1009.02,1421.355,980.684,1520.4,999.587Z" transform="translate(-1379.699 -990.124)"/><path class="f" d="M1380.718,1041.3s-18.862,8.322-24.792,29.437l2.876.923s10.135-20.933,21.414-27.473S1380.718,1041.3,1380.718,1041.3Z" transform="translate(-1355.925 -1016.206)"/></g></g><g transform="translate(433.207)"><path class="h" d="M1224.927,786.834s-41.734-21.765-23.507-53.534c0,0,14.755-19.613,31.028-25.028,0,0-7.372,46.784,1.418,47.618s4.455-52.724,4.455-52.724,42.621-22.087,59.637-20.95c0,0-25.467,46.228-16.742,44.872s37.459-48.229,37.459-48.229,44.089-9.53,51.987,16.53-3.205,39.539-9.724,41.376-48.68,2.545-47.423,7.986,29.98,13.35,45.706,7.952c0,0-16.227,43.761-39.281,42.256s-30.592-15.524-44.855-16.194-24.549,3.47-17.319,7.09,31.235.326,43.02,9.755,21.269,15.173.054,20.187-59.611,3.419-67.763-12.773Z" transform="translate(-1196.813 -677.16)"/><g transform="translate(8.753 27.044)"><path class="g" d="M1370.545,733.5s-113.833,40.642-125.73,82.631c0,0,1.1,18.594-9.756,40.282l.244,8.209s11.21-28.272,17.664-32.3C1252.967,832.324,1226.167,796.966,1370.545,733.5Z" transform="translate(-1225.454 -733.501)"/><path class="g" d="M1224.653,983.866s-16.924,27.445-5.843,59.91l4.524-1.36s-5.5-35.958,3.232-54.385S1224.653,983.866,1224.653,983.866Z" transform="translate(-1215.048 -860.953)"/></g></g><rect class="l" width="292.687" height="381.704" transform="translate(272.289 167.287)"/><rect class="m" width="287.767" height="381.704" transform="translate(281.858 167.287)"/><path class="d" d="M1839.922,1749.217h-57.988c-3.108-2.636,2.15-8.622,7.644-9.024a33.929,33.929,0,0,1,8.851,1.047c.8-10.6,5.355-58.245,22.529-56.33,19.311,2.143,0,20.982-5.459,32.136-4.044,8.261-8.31,20.109-10.259,25.7,1.567.34,3.191.673,4.848.978,2.559-7.859,12.083-34.294,24.194-32.754,14.219,1.8,8.5,12.4-1.574,18.693-7.394,4.627-16.474,11.2-20.788,14.379a61.587,61.587,0,0,0,11.34.909C1833.194,1744.715,1838.042,1747.642,1839.922,1749.217Z" transform="translate(-1067.387 -1201.161)"/><path class="m" d="M1142.46,943.056l0,0H854.689c1.592-21.761-.806-37.563-4.649-48.926-7.38-21.85-20.1-27.332-20.1-27.332h271.393c23.163,0,41.123,13.955,46.013,32.476.182.7.352,1.391.5,2.085C1152.487,922.554,1142.651,942.668,1142.46,943.056Z" transform="translate(-572.832 -775.774)"/><path class="n" d="M1164.234,972.665l0,0H876.463c1.592-21.761-.806-37.563-4.649-48.926,29.408,5.385,102.245,16.86,180.208,14.927,50.437-1.251,90.293-4.626,117.6-7.7C1174.261,952.164,1164.425,972.278,1164.234,972.665Z" transform="translate(-594.606 -805.383)"/><g transform="translate(319.215 248.145)"><path class="o" d="M1153.51,1201.287H1002.364a3.589,3.589,0,0,1-3.579-3.579h0a3.59,3.59,0,0,1,3.579-3.579h151.147a3.59,3.59,0,0,1,3.578,3.579h0A3.59,3.59,0,0,1,1153.51,1201.287Z" transform="translate(-979.846 -1194.128)"/><rect class="o" width="98.64" height="7.158" rx="3.579" transform="translate(18.939 12.044)"/><path class="o" d="M963.569,1212.171v-14.621h-1.93q-1.755,0-1.755-1.462,0-1.053,1.375-1.491a10.167,10.167,0,0,1,2.237-.351q1.535-.117,2.471-.117.906,0,1.14.366a4.362,4.362,0,0,1,.234,1.857v15.82h1.989q1.93,0,1.93,1.667,0,1.755-1.93,1.754h-8.013a2.208,2.208,0,0,1-1.418-.453,1.533,1.533,0,0,1-.57-1.272q0-1.7,1.959-1.7Z" transform="translate(-959.329 -1194.128)"/></g><g transform="translate(319.095 323.531)"><path class="p" d="M1153.51,1358.341H1002.364a3.59,3.59,0,0,1-3.579-3.579h0a3.589,3.589,0,0,1,3.579-3.579H1153.51a3.589,3.589,0,0,1,3.579,3.579h0A3.59,3.59,0,0,1,1153.51,1358.341Z" transform="translate(-979.726 -1351.183)"/><path class="p" d="M3.579,0H95.06A3.579,3.579,0,0,1,98.64,3.579v0A3.579,3.579,0,0,1,95.06,7.158H3.579A3.579,3.579,0,0,1,0,3.579v0A3.579,3.579,0,0,1,3.579,0Z" transform="translate(19.059 12.043)"/><path class="p" d="M971.432,1368.924q0,1.462-2.042,1.46h-8.477q-1.835,0-1.835-1.473a1.865,1.865,0,0,1,.491-1.086q.723-.826,2.119-2.48,2.118-2.663,3.541-4.6.49-.645,1.395-1.964a4.748,4.748,0,0,0,.75-2.223,2.285,2.285,0,0,0-.647-1.667,2.215,2.215,0,0,0-1.654-.659,2.536,2.536,0,0,0-1.706.62,2.941,2.941,0,0,0-.775,1.551q-.362,1.472-.465,1.7a1.31,1.31,0,0,1-1.266.828,1.45,1.45,0,0,1-1.215-.569,1.937,1.937,0,0,1-.414-1.292,6.262,6.262,0,0,1,.285-1.835,5.513,5.513,0,0,1,2.2-3.05,6.378,6.378,0,0,1,3.644-1.007,5.647,5.647,0,0,1,3.928,1.423,4.982,4.982,0,0,1,1.628,3.831,6.673,6.673,0,0,1-1.163,3.572q-.646,1.01-2.662,3.573-1.034,1.32-3.256,3.83h5.582Q971.432,1367.412,971.432,1368.924Z" transform="translate(-959.079 -1351.183)"/></g><g transform="translate(318.768 385.621)"><path class="p" d="M1153.51,1489.352H1002.364a3.59,3.59,0,0,1-3.579-3.579h0a3.59,3.59,0,0,1,3.579-3.579H1153.51a3.59,3.59,0,0,1,3.579,3.579h0A3.59,3.59,0,0,1,1153.51,1489.352Z" transform="translate(-979.399 -1481.398)"/><path class="p" d="M3.579,0H95.06A3.579,3.579,0,0,1,98.64,3.579v0a3.579,3.579,0,0,1-3.579,3.579H3.579A3.579,3.579,0,0,1,0,3.579v0A3.579,3.579,0,0,1,3.579,0Z" transform="translate(19.386 12.839)"/><path class="p" d="M971.078,1494.538a5.541,5.541,0,0,1-1.928,4.412,6.792,6.792,0,0,1-4.623,1.584,6.475,6.475,0,0,1-3.7-1.03,4.709,4.709,0,0,1-2.43-3.936,1.654,1.654,0,0,1,.423-1.137,1.383,1.383,0,0,1,1.083-.475,1.656,1.656,0,0,1,1.295.925,20.263,20.263,0,0,0,1.136,1.691,2.945,2.945,0,0,0,2.245.924,2.8,2.8,0,0,0,2.641-1.373,3.657,3.657,0,0,0,.37-1.744q0-2.588-3.038-2.879-1.717-.159-1.717-1.453a1.381,1.381,0,0,1,1-1.347q1.863-.686,1.889-.713a2.552,2.552,0,0,0,1-2.3,2.068,2.068,0,0,0-.579-1.545,2.125,2.125,0,0,0-1.554-.568,2.843,2.843,0,0,0-1.9.58,3.808,3.808,0,0,0-.974,1.717,1.2,1.2,0,0,1-1.211.925,1.241,1.241,0,0,1-1.04-.554,2.009,2.009,0,0,1-.409-1.215,3.378,3.378,0,0,1,.449-1.638,5.064,5.064,0,0,1,2.272-2.14,6.648,6.648,0,0,1,3.064-.713,5.339,5.339,0,0,1,3.738,1.36,4.615,4.615,0,0,1,1.493,3.579,4.9,4.9,0,0,1-2.219,4.227A4.788,4.788,0,0,1,971.078,1494.538Z" transform="translate(-958.398 -1480.537)"/></g><g transform="translate(352.347 184.323)"><path class="o" d="M4.158,0h92.67a4.157,4.157,0,0,1,4.157,4.157v0a4.158,4.158,0,0,1-4.158,4.158H4.158A4.158,4.158,0,0,1,0,4.158v0A4.158,4.158,0,0,1,4.158,0Z" transform="translate(25.46)"/><path class="o" d="M1176.1,1096.2h-143.59a4.17,4.17,0,0,1-4.158-4.158h0a4.17,4.17,0,0,1,4.158-4.158H1176.1a4.17,4.17,0,0,1,4.158,4.158h0A4.17,4.17,0,0,1,1176.1,1096.2Z" transform="translate(-1028.355 -1075.057)"/></g><g transform="translate(299.401 220.052)"><path class="q" d="M1035.8,1209.451c-31.349,0-61.1-3.934-83.274-9.556-22.405-5.681-34.474-14.965-34.474-23.2,0-7.463,9.836-14.328,28.444-19.851h0c-17.833,5.293-27.37,13.066-27.37,19.851,0,7.53,12.361,14.983,33.916,20.448,22.1,5.6,51.49,8.688,82.758,8.688s60.659-3.086,82.758-8.688c21.554-5.465,33.916-12.918,33.916-20.448,0-7.974-13.017-17.884-33.971-25.863-23.826-9.073-53.2-12.439-82.7-12.439-55.393,0-78.2,6.467-97.98,14.57h0c19.87-8.138,42.391-17.362,97.979-17.362,29.624,0,59.121,5.02,83.059,14.135,21.4,8.147,34.689,18.477,34.689,26.959,0,8.235-12.339,15.9-34.744,21.579C1096.625,1203.9,1067.147,1209.451,1035.8,1209.451Z" transform="translate(-918.051 -1135.601)"/></g><g transform="translate(443.292 202.6)"><path class="r" d="M1546.258,1440.33s-1.032,10.035-2.165,11.933-5.955,7.965-8.009,9.155,1.254-7.992.836-9.78-1.691,3.261-2.6,3.38-.672-4.425-.705-6.078,4.406-5.735,5.97-9.255S1546.258,1440.33,1546.258,1440.33Z" transform="translate(-1382.035 -1275.537)"/><path class="r" d="M1284.863,1230.9l-2.306-4.351s1.144-7.755-8.572-12.661c0,0-3.551-1.446-5.556,1.451-1.847,2.668,3.519,2.185,3.231,6.75s1.878,7.242,4.894,8.728l2.492,2.887Z" transform="translate(-1243.937 -1158.673)"/><path class="s" d="M1384.8,1226.424s-8.345,40.955-54.264,54.336c-14.335,4.178-46.9-43.014-46.9-43.014s1.145-4.35,8.318-3.351c0,0,31.707,20.991,35.7,23.272,3.542,2.023,26.836-26.011,37.455-30.533A27.1,27.1,0,0,1,1384.8,1226.424Z" transform="translate(-1252.048 -1164.596)"/><g transform="translate(0 53.774)"><rect class="q" width="8.577" height="43.142" transform="matrix(0.152, -0.988, 0.988, 0.152, 9.263, 8.478)"/><path class="r" d="M1217.824,1213.987l9.263,5.761,1.3-8.477Z" transform="translate(-1217.824 -1211.271)"/><path class="r" d="M1331.787,1228.49l-.411,2.68a3.02,3.02,0,0,1-3.443,2.526l-1.973-.3,1.3-8.477,2.145.329A2.845,2.845,0,0,1,1331.787,1228.49Z" transform="translate(-1274.054 -1218.367)"/></g><g transform="translate(84.204 154.525)"><path class="t" d="M1586.249,1761.755s5.7,5.2,4.585,8.892-6.252,6.156-6.947,10.671-3.473,6.977-5.974,6.977h-11.923s-1.84-3.177,2.605-4.135,6.122-6.263,5.844-11.188a86.775,86.775,0,0,1,.417-11.492l9.448-2.189Z" transform="translate(-1482.877 -1596.994)"/><path class="t" d="M1426.733,1787.474s1.022,11.831-1.479,13.062l-32.006-.065s0-3.694,5.14-4.515,14.172-3.83,15.7-10.533S1426.733,1787.474,1426.733,1787.474Z" transform="translate(-1393.249 -1609.267)"/><path class="u" d="M1406.713,1441.144s1.688,20.739,3.672,45.668c2.7,33.864,5.94,75.46,6.261,83.34.554,13.684,2.781,35.572,2.781,35.572s5.277,5.2,15.839,3.009c0,0,9.412-31.246,12.1-64.305.042-.542.083-1.088.126-1.634,2.5-33.655,6.39-104.522,6.39-104.522Z" transform="translate(-1400.25 -1430.063)"/><path class="t" d="M1406.713,1441.144s1.688,20.739,3.672,45.668l36.98,57.615c.042-.542.083-1.088.126-1.634,2.5-33.655,6.39-104.522,6.39-104.522Z" transform="translate(-1400.25 -1430.063)"/><path class="u" d="M1422.773,1434.714s30.429,75.108,50.436,110.4,26.26,45.146,26.26,45.146,11.462-4.515,12.5-7.593c0,0-7.651-68.141-21.049-84.752-7.571-9.386-16.464-37.554-16.882-47.4s-2.709-29.346-2.709-29.346Z" transform="translate(-1408.601 -1421.17)"/></g><path class="r" d="M1471.017,1181.223s-20.588,9.934-32.457,6.248a28.013,28.013,0,0,1,8.034-6.428c-.411-2.382-.73-4.45-.913-6.2a57.41,57.41,0,0,1-.5-6.337l7.943-6.248,7.532-5.978C1460.061,1173.087,1471.017,1181.223,1471.017,1181.223Z" transform="translate(-1332.607 -1128.9)"/><path class="v" d="M1463.452,1309.239c.046,1.259-2.647,2.7-3.834,3.237-8.81,3.865-17.027,6.562-26.34,7.462-11,1.124-24.011-1.349-28.485-1.259a1.86,1.86,0,0,1-1.233-.495c-.319-.225-.548-13.484-.319-30.16,0-.674,0-1.349.045-2.023v-.225c.092-6.518.32-13.35.639-20.182.639-15.014,1.826-29.487,3.834-37.488,2.42-9.439,7.9-15.687,12.873-20.227l4.109-3.6a19.738,19.738,0,0,0,12.782-1.527c4.747-2.293,9.86-4.766,10.682-4.137,6.208,4.54,10.407,14.744,12.644,27.78a144.5,144.5,0,0,1,1.872,24.721c0,3.237-.092,6.563-.274,9.844a310.406,310.406,0,0,0,.639,42.206C1463.27,1305.778,1463.406,1307.8,1463.452,1309.239Z" transform="translate(-1314.193 -1150.867)"/><path class="s" d="M1489.136,1338.623c-72.094-.143-13.3-78.229-13.3-78.229l11.68-3.793a226.846,226.846,0,0,1,1.353,26.412c0,3.458-.066,7.011-.2,10.517C1487.882,1312.547,1488.674,1329.067,1489.136,1338.623Z" transform="translate(-1340.241 -1181.069)"/><path class="w" d="M1467.962,1169.18s-5.2,9.484-15.11,12.136a57.4,57.4,0,0,1-.5-6.337l7.943-6.248Z" transform="translate(-1339.778 -1135.376)"/><path class="r" d="M1440.653,1146.516s19.64,3.213,21.484-8.861,5.62-19.792-6.841-22.353-15.608,1.683-17.219,5.566S1435.592,1145.37,1440.653,1146.516Z" transform="translate(-1331.702 -1107.188)"/><path class="x" d="M1462.4,1105.911c.178-.2.589-.369,1.5-.419a3.71,3.71,0,0,0-1.709-.482c-.192-1.272-.868-3.525-3.059-4.072a2.745,2.745,0,0,1,1.331,1.981c-2.537-2.605-7.972-4.5-23.024-3.313-19.837,1.565-13.3,14.266-10.731,15.78s9.033-2.637,13.817-2.257,5.695,7.294,7.318,8.243.985-.729,3.181-1.722,2.405,2.647,1.771,5.013,2.383,5.488,2.383,5.488l3.05-3.285c3.049-3.284,5.923-17.194,4.537-20.159C1462.645,1106.443,1462.524,1106.178,1462.4,1105.911Z" transform="translate(-1324.826 -1099.243)"/><path class="v" d="M1486.809,1198.52s12.427,5.884,18.385,14.931c9.242,14.031,19.955,65.172,20.153,69.909s-7.819,38.169-7.819,38.169-8.131-.536-10.228-4.64c0,0,1.624-34.352.6-36.561s-33.9-46.08-30.2-55.442S1486.809,1198.52,1486.809,1198.52Z" transform="translate(-1352.805 -1150.867)"/><path class="r" d="M1291.626,1231.637s.676-2.669-1.176-3.869-3.555-4.463-4.336-4.02c-1.617.915.885,3.763.427,7.314C1286.382,1232.306,1289.277,1235.564,1291.626,1231.637Z" transform="translate(-1253.049 -1163.964)"/></g><path class="d" d="M611.274,1697.4s-29.19-74.743-49.661-62.842S611.274,1697.4,611.274,1697.4Z" transform="translate(-431.354 -1174.338)"/><path class="d" d="M575.263,1736.639s-38.561-33.325-56.176-27.136S575.263,1736.639,575.263,1736.639Z" transform="translate(-409.775 -1213.58)"/><path class="d" d="M1489.7,1759.448s8.886-30.9,19.311-27.252S1489.7,1759.448,1489.7,1759.448Z" transform="translate(-915.906 -1225.623)"/><path class="d" d="M1506.593,1773.682s22.685-14.891,27.67-10.288S1506.593,1773.682,1506.593,1773.682Z" transform="translate(-924.691 -1241.543)"/><path class="p" d="M1151.053,1643.287H974.1a2.16,2.16,0,0,1-2.153-2.153h0a2.159,2.159,0,0,1,2.153-2.153h176.953a2.159,2.159,0,0,1,2.153,2.153h0A2.16,2.16,0,0,1,1151.053,1643.287Z" transform="translate(-646.675 -1177.307)"/><path class="p" d="M1151.053,1661.244H974.1a2.16,2.16,0,0,1-2.153-2.153h0a2.16,2.16,0,0,1,2.153-2.154h176.953a2.16,2.16,0,0,1,2.153,2.154h0A2.16,2.16,0,0,1,1151.053,1661.244Z" transform="translate(-646.675 -1186.644)"/><path class="p" d="M1151.053,1681.144H974.1a2.159,2.159,0,0,1-2.153-2.153h0a2.159,2.159,0,0,1,2.153-2.153h176.953a2.159,2.159,0,0,1,2.153,2.153h0A2.159,2.159,0,0,1,1151.053,1681.144Z" transform="translate(-646.675 -1196.992)"/><path class="p" d="M1127.68,1701.043H974.1a2.16,2.16,0,0,1-2.153-2.153h0a2.16,2.16,0,0,1,2.154-2.154H1127.68a2.16,2.16,0,0,1,2.153,2.154h0A2.16,2.16,0,0,1,1127.68,1701.043Z" transform="translate(-646.675 -1207.339)"/><path class="y" d="M1172.586,1820.813H295.233a.938.938,0,0,1-.935-.935h0a.938.938,0,0,1,.935-.936h877.353a.938.938,0,0,1,.935.935h0A.938.938,0,0,1,1172.586,1820.813Z" transform="translate(-294.298 -1270.887)"/></g></g></svg>