<svg xmlns="http://www.w3.org/2000/svg" width="34.771" height="27.975" viewBox="0 0 34.771 27.975"><defs><style>.a{fill:#363291;stroke:#fff;stroke-width:0.5px;}</style></defs><g transform="translate(0.25 -50.682)"><path class="a" d="M11.9,164.129a15.846,15.846,0,0,0-4.7-.637,15.846,15.846,0,0,0-4.7.637C.435,164.8,0,165.789,0,166.5v13.947c0,.712.435,1.7,2.51,2.372a15.846,15.846,0,0,0,4.7.637,15.846,15.846,0,0,0,4.7-.637c2.075-.671,2.51-1.661,2.51-2.372V166.5C14.411,165.789,13.976,164.8,11.9,164.129Zm-4.7,1.365c2.854,0,4.6.631,5.1,1.008-.5.376-2.246,1.008-5.1,1.008s-4.6-.631-5.1-1.008C2.61,166.125,4.351,165.493,7.206,165.493ZM2,173.349c.158.063.326.125.508.184a15.845,15.845,0,0,0,4.7.637,15.845,15.845,0,0,0,4.7-.637c.182-.059.351-.12.508-.184v2.363c-.313.354-2.1,1.1-5.2,1.1s-4.891-.746-5.2-1.1Zm5.2-1.181c-3.1,0-4.891-.746-5.2-1.1v-2.379c.158.063.326.125.508.184a15.846,15.846,0,0,0,4.7.637,15.846,15.846,0,0,0,4.7-.637c.182-.059.351-.12.508-.184v2.379C12.1,171.422,10.309,172.168,7.206,172.168Zm0,9.288c-3.1,0-4.891-.746-5.2-1.1v-2.364c.158.063.326.125.508.184a15.846,15.846,0,0,0,4.7.637,15.846,15.846,0,0,0,4.7-.637c.182-.059.351-.12.508-.184v2.364C12.1,180.71,10.309,181.456,7.206,181.456Z" transform="translate(0 -105.05)"/><path class="a" d="M309.571,164.129a17.631,17.631,0,0,0-9.391,0c-2.075.671-2.51,1.661-2.51,2.372v13.947c0,.712.435,1.7,2.51,2.372a17.631,17.631,0,0,0,9.391,0c2.074-.671,2.51-1.661,2.51-2.372V166.5C312.081,165.789,311.646,164.8,309.571,164.129Zm-9.9,9.22c.158.063.326.125.508.184a17.631,17.631,0,0,0,9.391,0c.182-.059.351-.12.508-.184v2.363c-.313.354-2.1,1.1-5.2,1.1s-4.891-.746-5.2-1.1Zm5.2-1.181c-3.1,0-4.891-.746-5.2-1.1v-2.379c.158.063.326.125.508.184a17.631,17.631,0,0,0,9.391,0c.182-.059.351-.12.508-.184v2.379C309.767,171.422,307.979,172.168,304.876,172.168Zm0-6.674c2.854,0,4.6.631,5.1,1.008-.5.376-2.246,1.008-5.1,1.008s-4.6-.631-5.1-1.008C300.28,166.125,302.021,165.493,304.876,165.493Zm0,15.962c-3.1,0-4.891-.746-5.2-1.1v-2.364c.158.063.326.125.508.184a17.631,17.631,0,0,0,9.391,0c.182-.059.351-.12.508-.184v2.364C309.767,180.71,307.979,181.456,304.876,181.456Z" transform="translate(-277.81 -105.05)"/><path class="a" d="M117.307,54.874h4.533v1.8h2v-3.8h-6.506a2.907,2.907,0,0,0-2.738-1.94h-1.964a2.907,2.907,0,0,0-2.738,1.94h-6.534v3.8h2v-1.8h4.561a2.906,2.906,0,0,0,2.709,1.862H114.6A2.907,2.907,0,0,0,117.307,54.874Zm-2.709-.139h-1.964a.9.9,0,1,1,0-1.8H114.6a.9.9,0,0,1,0,1.8Z" transform="translate(-96.467)"/></g></svg>