<svg xmlns="http://www.w3.org/2000/svg" width="27.556" height="24.371" viewBox="0 0 27.556 24.371"><defs><style>.a{fill:#a2a2a2;stroke:#a2a2a2;stroke-width:0.5px;}</style></defs><g transform="translate(0.25 0.25)"><path class="a" d="M118.337,186.805a.445.445,0,0,1-.289-.107l-2.89-2.461a.447.447,0,0,1,0-.68l2.89-2.461a.447.447,0,1,1,.579.68l-2.491,2.121,2.491,2.121a.447.447,0,0,1-.29.787Zm0,0" transform="translate(-107.662 -169.44)"/><path class="a" d="M250.154,186.8a.447.447,0,0,1-.29-.787l2.491-2.121-2.491-2.121a.447.447,0,0,1,.579-.68l2.89,2.461a.447.447,0,0,1,0,.68l-2.89,2.461a.445.445,0,0,1-.289.107Zm0,0" transform="translate(-233.773 -169.44)"/><path class="a" d="M189.4,162.471a.454.454,0,0,1-.093-.01.447.447,0,0,1-.345-.529l1.8-8.553a.447.447,0,0,1,.874.184l-1.8,8.553A.447.447,0,0,1,189.4,162.471Zm0,0" transform="translate(-176.896 -143.26)"/><path class="a" d="M24.057,23.871H3a3,3,0,0,1-3-3V3A3,3,0,0,1,3,0H24.057a3,3,0,0,1,3,3V20.872A3,3,0,0,1,24.057,23.871ZM3,.893A2.108,2.108,0,0,0,.893,3V20.872A2.108,2.108,0,0,0,3,22.978H24.057a2.108,2.108,0,0,0,2.106-2.106V3A2.108,2.108,0,0,0,24.057.893Zm0,0"/><path class="a" d="M26.609,98.983H.447a.447.447,0,0,1,0-.893H26.609a.447.447,0,0,1,0,.893Zm0,0" transform="translate(0 -91.831)"/><path class="a" d="M98.863,37.116a1.414,1.414,0,1,1,1.414-1.414A1.415,1.415,0,0,1,98.863,37.116Zm0-1.934a.52.52,0,1,0,.52.52A.521.521,0,0,0,98.863,35.183Zm0,0" transform="translate(-91.231 -32.101)"/><path class="a" d="M30.8,36.9a1.414,1.414,0,1,1,1.414-1.414A1.415,1.415,0,0,1,30.8,36.9Zm0-1.934a.52.52,0,1,0,.52.52A.521.521,0,0,0,30.8,34.968Zm0,0" transform="translate(-27.512 -31.9)"/><path class="a" d="M166.929,37.331a1.413,1.413,0,1,1,1.414-1.414A1.415,1.415,0,0,1,166.929,37.331Zm0-1.934a.52.52,0,1,0,.52.52A.521.521,0,0,0,166.929,35.4Zm0,0" transform="translate(-154.954 -32.302)"/></g></svg>