<svg xmlns="http://www.w3.org/2000/svg" width="19" height="19" viewBox="0 0 19 19"><defs><style>.a{fill:#363291;}</style></defs><g transform="translate(0 11.615)"><path class="a" d="M17.516,313v5.158a.743.743,0,0,1-.742.742H2.227a.743.743,0,0,1-.742-.742V313H0v5.158a2.229,2.229,0,0,0,2.227,2.227H16.773A2.229,2.229,0,0,0,19,318.158V313Z" transform="translate(0 -313)"/></g><g transform="translate(4.888)"><path class="a" d="M139.891,8.747l-2.82,2.82V0h-1.484V11.568l-2.82-2.82-1.05,1.05,4.612,4.612L140.94,9.8Z" transform="translate(-131.716)"/></g></svg>