<svg xmlns:dc="http://purl.org/dc/elements/1.1/" xmlns:cc="http://creativecommons.org/ns#" xmlns:rdf="http://www.w3.org/1999/02/22-rdf-syntax-ns#" xmlns:svg="http://www.w3.org/2000/svg" xmlns="http://www.w3.org/2000/svg" xmlns:sodipodi="http://sodipodi.sourceforge.net/DTD/sodipodi-0.dtd" xmlns:inkscape="http://www.inkscape.org/namespaces/inkscape" version="1.1" x="0px" y="0px" viewBox="0 0 100 125"><g transform="translate(0,-952.36218)"><path d="m 79.32847,966.54072 c -16.0644,14.98239 -27.47556,26.21221 -42.25371,41.70138 -0.2933,0.3118 -0.51861,0.6871 -0.65582,1.0925 l -4.27846,12.0484 c -0.38601,1.074 -0.0896,2.3607 0.72755,3.1578 0.81711,0.7971 2.11129,1.0621 3.17615,0.6503 l 11.33635,-4.2451 c 0.4083,-0.1462 0.78412,-0.3823 1.09304,-0.6866 13.81731,-14.4354 30.06843,-28.9506 42.15995,-41.73256 2.38541,-3.54136 1.4093,-7.73009 -1.09304,-10.20685 -3.01863,-2.8998 -6.77164,-4.00033 -10.21201,-1.77927 z m 5.99609,6.05543 c 0.36427,0.36056 0.78297,1.78559 0.34352,2.5283 -12.58774,12.32863 -25.20202,24.61152 -37.63165,37.08185 l -3.31034,-3.3087 c 12.06267,-13.04213 25.20427,-25.02729 37.97522,-37.36266 0.95558,-0.30104 1.90912,0.0909 2.62325,1.06121 z m -77.3245304,37.79985 0,25.9697 c 1.6e-4,1.5689 1.42832,2.9963 2.9980404,2.9965 l 77.94912,0 c 1.56973,-2e-4 2.99788,-1.4276 2.99804,-2.9965 l 0,-25.9697 c -1.6e-4,-1.569 -1.42831,-2.9964 -2.99804,-2.9966 l -26.17042,0 c -2.04832,1.9665 -4.04351,3.9791 -6.05851,5.993 l 29.23092,0 0,19.9768 -71.95303,0 0,-19.9768 19.92449,0 1.56148,-4.4011 c 0.24302,-0.6851 0.62448,-1.102 1.03058,-1.5919 l -25.5146,0 c -2.0490404,0.012 -2.9664504,1.7817 -2.9980704,2.9966 z" style="text-indent:0;text-transform:none;direction:ltr;block-progression:tb;baseline-shift:baseline;color:#000000;enable-background:accumulate;" fill="#000000" fill-opacity="1" stroke="none" marker="none" visibility="visible" display="inline" overflow="visible"/></g><text x="0" y="115" fill="#000000" font-size="5px" font-weight="bold" font-family="'Helvetica Neue', Helvetica, Arial-Unicode, Arial, Sans-serif">Created by zidney</text><text x="0" y="120" fill="#000000" font-size="5px" font-weight="bold" font-family="'Helvetica Neue', Helvetica, Arial-Unicode, Arial, Sans-serif">from the Noun Project</text></svg>