<svg xmlns="http://www.w3.org/2000/svg" width="28" height="28" viewBox="0 0 28 28"><defs><style>.a{fill:#363291;stroke:#363291;stroke-width:0.5px;}</style></defs><g transform="translate(0.25 0.25)"><path class="a" d="M115.757,224.152a.6.6,0,0,0-.844.047,6.651,6.651,0,0,1-9.87,0,.6.6,0,1,0-.891.8,7.846,7.846,0,0,0,11.652,0A.6.6,0,0,0,115.757,224.152Z" transform="translate(-96.228 -207.26)"/><path class="a" d="M13.75,0A13.75,13.75,0,1,0,27.5,13.75,13.766,13.766,0,0,0,13.75,0Zm0,26.3A12.554,12.554,0,1,1,26.3,13.75,12.568,12.568,0,0,1,13.75,26.3Z"/><path class="a" d="M210.989,128A2.993,2.993,0,0,0,208,130.989a.6.6,0,0,0,1.2,0,1.793,1.793,0,1,1,3.587,0,.6.6,0,0,0,1.2,0A2.993,2.993,0,0,0,210.989,128Z" transform="translate(-192.456 -118.435)"/><path class="a" d="M84.783,130.989a.6.6,0,0,0,1.2,0,2.989,2.989,0,0,0-5.978,0,.6.6,0,0,0,1.2,0,1.793,1.793,0,1,1,3.587,0Z" transform="translate(-74.022 -118.435)"/></g></svg>