<svg xmlns="http://www.w3.org/2000/svg" width="235.286" height="190.698" viewBox="0 0 235.286 190.698"><defs><style>.a{fill:#3f3d56;}.b{fill:#e6e6e6;}.c{fill:#363291;}.d{fill:#fff;}.e{fill:#ffb8b8;}.f{fill:#2f2e41;}</style></defs><g transform="translate(0.001 -0.001)"><path class="a" d="M601.779,632.65H524.27v-.633h77.624Z" transform="translate(-366.608 -441.952)"/><circle class="b" cx="2.049" cy="2.049" r="2.049" transform="translate(-0.001 0.001)"/><circle class="b" cx="2.049" cy="2.049" r="2.049" transform="translate(10.371 0.001)"/><circle class="b" cx="2.049" cy="2.049" r="2.049" transform="translate(20.743 0.001)"/><circle class="b" cx="2.049" cy="2.049" r="2.049" transform="translate(31.115 0.001)"/><circle class="b" cx="2.049" cy="2.049" r="2.049" transform="translate(41.486 0.001)"/><circle class="b" cx="2.049" cy="2.049" r="2.049" transform="translate(51.858 0.001)"/><circle class="b" cx="2.049" cy="2.049" r="2.049" transform="translate(62.23 0.001)"/><circle class="b" cx="2.049" cy="2.049" r="2.049" transform="translate(72.602 0.001)"/><circle class="b" cx="2.049" cy="2.049" r="2.049" transform="translate(82.974 0.001)"/><circle class="b" cx="2.049" cy="2.049" r="2.049" transform="translate(93.345 0.001)"/><circle class="b" cx="2.049" cy="2.049" r="2.049" transform="translate(-0.001 10.503)"/><circle class="b" cx="2.049" cy="2.049" r="2.049" transform="translate(10.371 10.503)"/><circle class="b" cx="2.049" cy="2.049" r="2.049" transform="translate(20.743 10.503)"/><circle class="c" cx="2.049" cy="2.049" r="2.049" transform="translate(31.115 10.503)"/><circle class="b" cx="2.049" cy="2.049" r="2.049" transform="translate(41.486 10.503)"/><circle class="b" cx="2.049" cy="2.049" r="2.049" transform="translate(51.858 10.503)"/><circle class="b" cx="2.049" cy="2.049" r="2.049" transform="translate(62.23 10.503)"/><circle class="b" cx="2.049" cy="2.049" r="2.049" transform="translate(72.602 10.503)"/><circle class="b" cx="2.049" cy="2.049" r="2.049" transform="translate(82.974 10.503)"/><circle class="b" cx="2.049" cy="2.049" r="2.049" transform="translate(93.345 10.503)"/><circle class="b" cx="2.049" cy="2.049" r="2.049" transform="translate(-0.001 21.005)"/><circle class="b" cx="2.049" cy="2.049" r="2.049" transform="translate(10.371 21.005)"/><circle class="b" cx="2.049" cy="2.049" r="2.049" transform="translate(20.743 21.005)"/><circle class="b" cx="2.049" cy="2.049" r="2.049" transform="translate(31.115 21.005)"/><circle class="b" cx="2.049" cy="2.049" r="2.049" transform="translate(41.486 21.005)"/><circle class="b" cx="2.049" cy="2.049" r="2.049" transform="translate(51.858 21.005)"/><circle class="b" cx="2.049" cy="2.049" r="2.049" transform="translate(62.23 21.005)"/><circle class="b" cx="2.049" cy="2.049" r="2.049" transform="translate(72.602 21.005)"/><circle class="b" cx="2.049" cy="2.049" r="2.049" transform="translate(82.974 21.005)"/><circle class="b" cx="2.049" cy="2.049" r="2.049" transform="translate(93.345 21.005)"/><circle class="b" cx="2.049" cy="2.049" r="2.049" transform="translate(-0.001 31.507)"/><circle class="b" cx="2.049" cy="2.049" r="2.049" transform="translate(10.371 31.507)"/><circle class="b" cx="2.049" cy="2.049" r="2.049" transform="translate(20.743 31.507)"/><circle class="b" cx="2.049" cy="2.049" r="2.049" transform="translate(31.115 31.507)"/><circle class="b" cx="2.049" cy="2.049" r="2.049" transform="translate(41.486 31.507)"/><circle class="b" cx="2.049" cy="2.049" r="2.049" transform="translate(51.858 31.507)"/><circle class="b" cx="2.049" cy="2.049" r="2.049" transform="translate(62.23 31.507)"/><circle class="b" cx="2.049" cy="2.049" r="2.049" transform="translate(72.602 31.507)"/><circle class="b" cx="2.049" cy="2.049" r="2.049" transform="translate(82.974 31.507)"/><circle class="b" cx="2.049" cy="2.049" r="2.049" transform="translate(93.345 31.507)"/><circle class="b" cx="2.049" cy="2.049" r="2.049" transform="translate(-0.001 42.009)"/><circle class="c" cx="2.049" cy="2.049" r="2.049" transform="translate(10.371 42.009)"/><circle class="b" cx="2.049" cy="2.049" r="2.049" transform="translate(20.743 42.009)"/><circle class="b" cx="2.049" cy="2.049" r="2.049" transform="translate(31.115 42.009)"/><circle class="b" cx="2.049" cy="2.049" r="2.049" transform="translate(41.486 42.009)"/><circle class="b" cx="2.049" cy="2.049" r="2.049" transform="translate(51.858 42.009)"/><circle class="b" cx="2.049" cy="2.049" r="2.049" transform="translate(62.23 42.009)"/><circle class="b" cx="2.049" cy="2.049" r="2.049" transform="translate(72.602 42.009)"/><circle class="b" cx="2.049" cy="2.049" r="2.049" transform="translate(82.974 42.009)"/><circle class="b" cx="2.049" cy="2.049" r="2.049" transform="translate(93.345 42.009)"/><circle class="b" cx="2.049" cy="2.049" r="2.049" transform="translate(-0.001 52.511)"/><circle class="b" cx="2.049" cy="2.049" r="2.049" transform="translate(10.371 52.511)"/><circle class="b" cx="2.049" cy="2.049" r="2.049" transform="translate(20.743 52.511)"/><circle class="b" cx="2.049" cy="2.049" r="2.049" transform="translate(31.115 52.511)"/><circle class="b" cx="2.049" cy="2.049" r="2.049" transform="translate(41.486 52.511)"/><circle class="b" cx="2.049" cy="2.049" r="2.049" transform="translate(51.858 52.511)"/><circle class="b" cx="2.049" cy="2.049" r="2.049" transform="translate(62.23 52.511)"/><circle class="b" cx="2.049" cy="2.049" r="2.049" transform="translate(72.602 52.511)"/><circle class="b" cx="2.049" cy="2.049" r="2.049" transform="translate(82.974 52.511)"/><circle class="b" cx="2.049" cy="2.049" r="2.049" transform="translate(93.345 52.511)"/><circle class="b" cx="2.049" cy="2.049" r="2.049" transform="translate(-0.001 63.013)"/><circle class="b" cx="2.049" cy="2.049" r="2.049" transform="translate(10.371 63.013)"/><circle class="c" cx="2.049" cy="2.049" r="2.049" transform="translate(20.743 63.013)"/><circle class="b" cx="2.049" cy="2.049" r="2.049" transform="translate(31.115 63.013)"/><circle class="b" cx="2.049" cy="2.049" r="2.049" transform="translate(41.486 63.013)"/><circle class="b" cx="2.049" cy="2.049" r="2.049" transform="translate(51.858 63.013)"/><circle class="b" cx="2.049" cy="2.049" r="2.049" transform="translate(62.23 63.013)"/><circle class="b" cx="2.049" cy="2.049" r="2.049" transform="translate(72.602 63.013)"/><circle class="b" cx="2.049" cy="2.049" r="2.049" transform="translate(82.974 63.013)"/><circle class="b" cx="2.049" cy="2.049" r="2.049" transform="translate(93.345 63.013)"/><circle class="b" cx="2.049" cy="2.049" r="2.049" transform="translate(-0.001 73.515)"/><circle class="b" cx="2.049" cy="2.049" r="2.049" transform="translate(10.371 73.515)"/><circle class="b" cx="2.049" cy="2.049" r="2.049" transform="translate(20.743 73.515)"/><circle class="b" cx="2.049" cy="2.049" r="2.049" transform="translate(31.115 73.515)"/><circle class="b" cx="2.049" cy="2.049" r="2.049" transform="translate(41.486 73.515)"/><circle class="b" cx="2.049" cy="2.049" r="2.049" transform="translate(51.858 73.515)"/><circle class="b" cx="2.049" cy="2.049" r="2.049" transform="translate(62.23 73.515)"/><circle class="b" cx="2.049" cy="2.049" r="2.049" transform="translate(72.602 73.515)"/><circle class="b" cx="2.049" cy="2.049" r="2.049" transform="translate(82.974 73.515)"/><circle class="b" cx="2.049" cy="2.049" r="2.049" transform="translate(93.345 73.515)"/><circle class="b" cx="2.049" cy="2.049" r="2.049" transform="translate(-0.001 84.017)"/><circle class="b" cx="2.049" cy="2.049" r="2.049" transform="translate(10.371 84.017)"/><circle class="b" cx="2.049" cy="2.049" r="2.049" transform="translate(20.743 84.017)"/><circle class="b" cx="2.049" cy="2.049" r="2.049" transform="translate(31.115 84.017)"/><circle class="b" cx="2.049" cy="2.049" r="2.049" transform="translate(41.486 84.017)"/><circle class="b" cx="2.049" cy="2.049" r="2.049" transform="translate(51.858 84.017)"/><circle class="b" cx="2.049" cy="2.049" r="2.049" transform="translate(62.23 84.017)"/><circle class="b" cx="2.049" cy="2.049" r="2.049" transform="translate(72.602 84.017)"/><circle class="b" cx="2.049" cy="2.049" r="2.049" transform="translate(82.974 84.017)"/><circle class="b" cx="2.049" cy="2.049" r="2.049" transform="translate(93.345 84.017)"/><circle class="b" cx="2.049" cy="2.049" r="2.049" transform="translate(-0.001 94.519)"/><circle class="b" cx="2.049" cy="2.049" r="2.049" transform="translate(10.371 94.519)"/><circle class="b" cx="2.049" cy="2.049" r="2.049" transform="translate(20.743 94.519)"/><circle class="b" cx="2.049" cy="2.049" r="2.049" transform="translate(31.115 94.519)"/><circle class="b" cx="2.049" cy="2.049" r="2.049" transform="translate(41.486 94.519)"/><circle class="b" cx="2.049" cy="2.049" r="2.049" transform="translate(51.858 94.519)"/><circle class="b" cx="2.049" cy="2.049" r="2.049" transform="translate(62.23 94.519)"/><circle class="b" cx="2.049" cy="2.049" r="2.049" transform="translate(72.602 94.519)"/><circle class="b" cx="2.049" cy="2.049" r="2.049" transform="translate(82.974 94.519)"/><circle class="b" cx="2.049" cy="2.049" r="2.049" transform="translate(93.345 94.519)"/><path class="b" d="M430.31,193.83a2.59,2.59,0,0,1,2.59,2.59V300.039a2.591,2.591,0,0,1-2.591,2.591H355.964a2.59,2.59,0,0,1-2.59-2.59V196.42a2.59,2.59,0,0,1,2.59-2.59H430.31" transform="translate(-309.899 -175.518)"/><path class="d" d="M362.991,306.462h73.743V203.447H362.991Z" transform="translate(-316.624 -182.243)"/><path class="b" d="M457.273,257.643a.518.518,0,0,1,.518.518V259.2a.518.518,0,0,1-.518.518H416.343a.518.518,0,0,1-.518-.518v-1.036a.518.518,0,0,1,.518-.518h40.929" transform="translate(-353.569 -220.141)"/><path class="b" d="M457.273,274.009a.518.518,0,0,1,.518.518v1.036a.518.518,0,0,1-.518.518H416.343a.518.518,0,0,1-.518-.518v-1.036a.518.518,0,0,1,.518-.518h40.929" transform="translate(-353.569 -231.585)"/><path class="c" d="M457.273,290.376a.518.518,0,0,1,.518.518v1.036a.518.518,0,0,1-.518.518H416.343a.518.518,0,0,1-.518-.518v-1.036a.518.518,0,0,1,.518-.518h40.929" transform="translate(-353.569 -243.03)"/><path class="b" d="M457.273,307.1a.518.518,0,0,1,.518.518v1.036a.518.518,0,0,1-.518.518H416.343a.518.518,0,0,1-.518-.518v-1.036a.518.518,0,0,1,.518-.518h40.929" transform="translate(-353.569 -254.725)"/><path class="b" d="M457.273,323.467a.518.518,0,0,1,.518.518v1.036a.518.518,0,0,1-.518.518H416.343a.518.518,0,0,1-.518-.518v-1.036a.518.518,0,0,1,.518-.518h40.929" transform="translate(-353.569 -266.17)"/><path class="b" d="M457.273,339.834a.518.518,0,0,1,.518.518v1.036a.518.518,0,0,1-.518.518H416.343a.518.518,0,0,1-.518-.518v-1.036a.518.518,0,0,1,.518-.518h40.929" transform="translate(-353.569 -277.615)"/><path class="c" d="M417.018,394.89a.6.6,0,0,0-.6.6v27.942a.6.6,0,0,0,.6.6h40.337a.6.6,0,0,0,.6-.6V395.491a.6.6,0,0,0-.6-.6Z" transform="translate(-353.983 -316.114)"/><path class="a" d="M276.256,80.094l-.423-.112,9.24-34.76h53.6v.438H285.41Z" transform="translate(-192.883 -31.621)"/><path class="a" d="M697.461,172.794a4.6,4.6,0,1,1,4.6-4.6,4.6,4.6,0,0,1-4.6,4.6Zm0-8.759a4.16,4.16,0,1,0,4.16,4.16,4.16,4.16,0,0,0-4.16-4.16Z" transform="translate(-547.294 -154.377)"/><circle class="c" cx="1.752" cy="1.752" r="1.752" transform="translate(148.415 12.067)"/><path class="a" d="M127.193,356.941l.423.113L118.309,391.8l-53.6-.1v-.438l53.26.1Z" transform="translate(-45.252 -249.599)"/><path class="a" d="M248.271,589.4a4.6,4.6,0,1,1-4.607,4.59A4.6,4.6,0,0,1,248.271,589.4Zm-.017,8.759a4.16,4.16,0,1,0-4.152-4.168,4.16,4.16,0,0,0,4.152,4.168Z" transform="translate(-233.181 -452.126)"/><circle class="c" cx="1.752" cy="1.752" r="1.752" transform="translate(13.329 140.116)"/><path class="e" d="M609.642,560.811h-3.091L607.1,543.7l8.168.441Z" transform="translate(-424.145 -380.196)"/><path class="f" d="M801.6,741.769c-.933.426-1.714-3.024-2.5-2.25a6.633,6.633,0,0,1-7.413,1.69l-.068-.011a1.376,1.376,0,0,1-.867-1.793h0a1.376,1.376,0,0,1,.955-.852l2.341-.585,3.675-6.464,3.752-.253h0a8.964,8.964,0,0,1,1.658,7.647C802.794,740.286,802.269,741.465,801.6,741.769Z" transform="translate(-615.686 -551.321)"/><path class="e" d="M694.345,552.22l-2.874,1.137-5.78-16.113,7.758-2.594Z" transform="translate(-479.486 -373.866)"/><path class="f" d="M911.118,733.264c-.711.739-2.706-2.181-3.154-1.173a6.633,6.633,0,0,1-6.272,4.3l-.068.014a1.376,1.376,0,0,1-1.466-1.348h0a1.376,1.376,0,0,1,.574-1.143l1.961-1.405,1.041-7.362,3.4-1.616h0a8.964,8.964,0,0,1,4.354,6.5C911.68,731.447,911.625,732.737,911.118,733.264Z" transform="translate(-692.25 -545.922)"/><path class="e" d="M873.825,404.587l-4.745,1.22a2.483,2.483,0,0,1-3.1-2.31h0a2.483,2.483,0,0,1,2.562-2.577l4.18.135,8.054-2.933-7.612-5.677.883-7.947,14.835,11.91a2.464,2.464,0,0,1,.915,1.746h0a2.464,2.464,0,0,1-1.807,2.552C884.513,403.543,879.449,404.412,873.825,404.587Z" transform="translate(-668.349 -308.847)"/><circle class="e" cx="7.727" cy="7.727" r="7.727" transform="translate(186.932 50.484)"/><path class="e" d="M857.894,345.315l-10.376,4.194a14.023,14.023,0,0,0-2.428-9.272l8.61-1.987C853.588,340.88,855.009,343.23,857.894,345.315Z" transform="translate(-653.742 -276.507)"/><path class="c" d="M847.45,375.113c-8.364.669-12.939-.441-19.979-4.526l2.649-6.181h0a5.113,5.113,0,0,1,2.106-4.9l2.751-1.948,8.389-2.428.376.019a4.592,4.592,0,0,1,4.349,4.234C849.914,364.833,849.925,370.1,847.45,375.113Z" transform="translate(-641.422 -288.314)"/><path class="f" d="M839.941,417.8l-17.882-1.987-1.325-5.74c-2.936-4.432-1.655-8.492,1.766-12.363,6.235,4,12.023,5.731,20.31,4.415C840.607,407.486,838.572,412.754,839.941,417.8Z" transform="translate(-635.569 -318.086)"/><path class="f" d="M842.763,524.73l-14.239-.773-4.636-36.867-3.753,36.646-16.888-.773c5.152-24.092,8.73-46.962,7.727-67.994l17.661,1.545c5.985,6.311,8.957,16.385,10.707,28.368A322.665,322.665,0,0,1,842.763,524.73Z" transform="translate(-624.483 -358.126)"/><circle class="f" cx="2.656" cy="2.656" r="2.656" transform="translate(200.509 45.865)"/><path class="f" d="M874.5,286.293a2.654,2.654,0,0,1,2.655-2.482c-.055-.007-.109-.015-.165-.019a2.656,2.656,0,1,0-.341,5.3c.056,0,.111,0,.166,0A2.654,2.654,0,0,1,874.5,286.293Z" transform="translate(-674.074 -238.422)"/><path class="f" d="M839.824,294.2c-2.369-1.965-9.162.532-9.6,1.853-3.2.436-5.628,2.305-5.628,5.628h0a9.609,9.609,0,0,0,6.411,0c3.732,3.041,3.988,6.865,1.718,11.256l2.792.056,3.461-5.059.166,5.131,6.4-.128v-7.353a15.373,15.373,0,0,0-1.641-7.043A14.128,14.128,0,0,0,839.824,294.2Z" transform="translate(-639.411 -245.197)"/><ellipse class="e" cx="1.27" cy="1.778" rx="1.27" ry="1.778" transform="translate(193.183 58.44)"/><path class="c" d="M792.314,559.928a.446.446,0,0,1,.446.446v17.839a.446.446,0,0,1-.446.446h-12.8a.446.446,0,0,1-.446-.446V560.374a.446.446,0,0,1,.446-.446h12.8" transform="translate(-607.575 -431.52)"/><path class="e" d="M817.276,421.658l.432,7.492a3.253,3.253,0,0,1-3.721,3.406h0c-1.9-.28-1.947-2.141-1.48-4.008l1.778-7.111c4.361-15.637,5.539-30.986,5.318-45.955a3.758,3.758,0,0,1,3.859-3.823h0a3.757,3.757,0,0,1,3.645,3.887C826.489,393.124,823.925,409.086,817.276,421.658Z" transform="translate(-630.785 -299.868)"/></g></svg>