<svg xmlns="http://www.w3.org/2000/svg" width="29.201" height="27.72" viewBox="0 0 29.201 27.72"><defs><style>.a{fill:#363291;stroke:#363291;stroke-width:0.5px;}</style></defs><path class="a" d="M28.7,15.613a.426.426,0,0,0-.21-.363l-6.768-3.907.018-6.89a.426.426,0,0,0-.21-.365L14.548.055a.42.42,0,0,0-.422,0L7.19,4.087a.42.42,0,0,0-.211.363l-.018,6.887L.23,15.25a.42.42,0,0,0-.211.363L0,22.743a.42.42,0,0,0,.21.365L7.194,27.14a.409.409,0,0,0,.422,0l3.211-1.866a.42.42,0,0,0-.422-.727l-2.578,1.5.016-6.156,6.1-3.543L13.922,22.5,12.19,23.508a.42.42,0,1,0,.422.727l1.731-1.006,6.772,3.91a.41.41,0,0,0,.422,0l6.938-4.032a.42.42,0,0,0,.209-.362l.006-2.4a.42.42,0,0,0-.419-.422h0a.42.42,0,0,0-.42.419L27.844,22.5l-6.1,3.543.016-6.156,6.1-3.542L27.854,18.4a.421.421,0,0,0,.419.422h0a.42.42,0,0,0,.42-.419l.007-2.79v0ZM13.962,8.726l-.016,6.16L7.8,11.339l.016-6.16ZM7.378,12.068l6.144,3.547-6.1,3.545L1.278,15.613Zm7.4,4.273,6.144,3.547-.016,6.16L14.763,22.5Zm6.564,2.819L15.2,15.613l6.1-3.545,6.142,3.546Zm-7-18.254,6.144,3.547L17.2,6.36a.42.42,0,0,0,.423.727l3.276-1.9-.016,6.154-6.1,3.543L14.8,8.725l1.113-.647a.42.42,0,0,0-.422-.727L14.382,8,8.239,4.45ZM.858,16.341,7,19.888l-.016,6.16L.842,22.5Zm0,0" transform="translate(0.249 0.258)"/></svg>