<svg xmlns="http://www.w3.org/2000/svg" width="24.318" height="24.284" viewBox="0 0 24.318 24.284"><defs><style>.a{fill:#353190;}</style></defs><g transform="translate(0 -0.358)"><g transform="translate(0 15.19)"><path class="a" d="M22.418,312.642v6.6a.951.951,0,0,1-.95.95H2.85a.951.951,0,0,1-.95-.95v-6.6H0v6.6a2.853,2.853,0,0,0,2.85,2.85H21.468a2.853,2.853,0,0,0,2.85-2.85v-6.6Z" transform="translate(0 -312.642)"/></g><g transform="translate(6.256 0.358)"><g transform="translate(0 0)"><path class="a" d="M137.619.358l-5.9,5.9L133.059,7.6l3.61-3.61V18.8h1.9V3.995l3.61,3.61,1.343-1.343Z" transform="translate(-131.716 -0.358)"/></g></g></g></svg>